# xmcd
#
# Track frame offsets: 
#        182
#        15137
#        36737
#        49800
#        66232
#        85252
#        106192
#        119590
#        133012
#        152315
#        176157
#        184592
#        195780
#        218322
#
# Disc length: 3129 seconds
#
# Revision: 0
# Processed by: cddbd v1.5PL3 Copyright (c) Steve Scherf et al.
# Submitted via: ExactAudioCopy v0.95a3
#
DISCID=b00c370e
DTITLE=Mickey Newbury - Nights When I Am Sane
DYEAR=1900
DGENRE=Country
TTITLE0=Just Dropped In
TTITLE1=33rd Of August
TTITLE2=East Kentucky
TTITLE3=Nights When I Am Sane
TTITLE4=Heaven Help The Child
TTITLE5=Genevieve
TTITLE6=Easy Street
TTITLE7=Apples Dipped In Candy
TTITLE8=You're My Lady Now
TTITLE9=San Francisco Mabel Joy
TTITLE10=Earthquake
TTITLE11=Saint CeCelia
TTITLE12=Four Ladies
TTITLE13=What Will I Do
EXTD=
EXTT0=
EXTT1=
EXTT2=
EXTT3=
EXTT4=
EXTT5=
EXTT6=
EXTT7=
EXTT8=
EXTT9=
EXTT10=
EXTT11=
EXTT12=
EXTT13=
PLAYORDER=
